<svg width="135" height="35" viewBox="0 0 135 35" fill="none" xmlns="http://www.w3.org/2000/svg"><path d="M28.0951 28.329C27.8302 28.2451 27.5216 28.3125 27.2474 28.8043L23.0524 28.8175L22.4602 30.5495C22.3959 30.7372 22.2784 30.8995 22.1237 31.0143C21.9689 31.129 21.7845 31.1907 21.5954 31.191L22.4057 28.8191H21.7917L21.2011 30.5479C21.1365 30.7357 21.0187 30.898 20.8637 31.0128C20.7087 31.1275 20.524 31.1892 20.3347 31.1893L21.145 28.8208H20.531L19.9467 30.5495C19.8827 30.7375 19.7653 30.9 19.6105 31.0149C19.4557 31.1297 19.271 31.1912 19.0818 31.191L19.8906 28.8257L15.3715 28.8389H12.272C12.3277 28.6163 12.4516 28.4195 12.6244 28.2791C12.7972 28.1386 13.0092 28.0625 13.2272 28.0625H15.5647L19.1488 14.6917H12.8299C11.1812 20.2413 9.53249 26.5065 7.8838 32.2009C7.60486 33.1615 8.27961 34.3392 9.23174 34.354C15.0692 34.4247 20.9066 34.2849 26.7456 34.354C26.9075 34.3563 27.0656 34.3015 27.1948 34.1985C27.324 34.0955 27.4171 33.9499 27.4593 33.7849L28.6046 29.3356C28.6596 29.1308 28.6372 28.9115 28.5422 28.7238C28.4472 28.5361 28.2869 28.3946 28.0951 28.329Z" fill="white"></path><path d="M23.1029 0.0148645V6.10355e-05H16.6219C16.478 5.71606e-05 16.3355 0.0301089 16.2026 0.0884848C16.0698 0.146861 15.9492 0.232407 15.8478 0.340196C15.7464 0.447984 15.6662 0.575884 15.6119 0.716527C15.5575 0.857169 15.53 1.00778 15.5311 1.15967H18.7521C18.6781 1.36882 18.5469 1.55005 18.3752 1.68037C18.2034 1.81069 17.9989 1.88421 17.7875 1.89162L16.5502 1.92945C15.9954 3.84074 15.4396 5.75204 14.8828 7.66333H21.0553L22.7959 1.15967H22.9673C23.1048 1.16171 23.2382 1.11041 23.3422 1.01551C23.4461 0.920603 23.5135 0.788698 23.5314 0.644835C23.5468 0.502413 23.5115 0.359033 23.4323 0.242592C23.3531 0.126151 23.2357 0.0449768 23.1029 0.0148645V0.0148645Z" fill="white"></path><path d="M28.281 9.88545L28.267 9.71275C27.9257 5.6862 24.6813 2.63174 20.8495 2.63174H9.76053C9.31071 2.63146 8.8717 2.77733 8.50314 3.04953C8.13458 3.32172 7.85433 3.70707 7.70044 4.15321C7.4106 4.89339 7.11971 5.63356 6.82779 6.37374H5.86164C5.53196 6.37414 5.20675 6.45425 4.91096 6.60793C4.61517 6.76162 4.35667 6.98478 4.15529 7.2603H9.64677C10.1283 7.2603 10.6051 7.27511 11.0804 7.28497C11.2448 7.28869 11.4066 7.32953 11.5548 7.40476C11.703 7.47999 11.8343 7.58785 11.9397 7.7211C12.0451 7.85434 12.1223 8.00987 12.166 8.17722C12.2097 8.34458 12.2189 8.51987 12.193 8.69131L10.8981 12.4415H10.2857L11.5199 8.82289H11.1365L9.90078 12.4415H9.12162L10.3589 8.82289C8.31753 8.78013 6.66573 8.73901 4.62434 8.69789C4.38334 8.69329 4.14586 8.75945 3.9384 8.88898C3.73093 9.01851 3.56163 9.20633 3.44937 9.43148C3.35252 9.62655 3.28122 9.8346 3.23744 10.0499C3.22136 10.1286 3.22326 10.2102 3.24298 10.2879C3.2627 10.3656 3.29968 10.4373 3.35085 10.4969C3.40202 10.5565 3.46592 10.6025 3.53725 10.6309C3.60858 10.6592 3.6853 10.6693 3.76104 10.6602H3.77195C3.8824 10.6396 3.9867 10.5918 4.07633 10.5206C4.16596 10.4494 4.2384 10.3569 4.28775 10.2506H7.84069C7.84193 10.323 7.82952 10.3949 7.80417 10.4622C7.77882 10.5295 7.74105 10.5908 7.69305 10.6426C7.64505 10.6943 7.58778 10.7354 7.52458 10.7636C7.46137 10.7917 7.39349 10.8064 7.32489 10.8066H5.46739C2.89618 18.8761 1.09165 24.6873 0.345223 26.4818C-0.401207 28.2763 0.234583 29.0264 0.779991 29.3093C1.01578 29.4286 1.27431 29.4893 1.53577 29.4869H6.22317L9.33978 19.8729H8.41571C8.176 19.8729 7.94611 19.7724 7.77661 19.5935C7.60711 19.4145 7.51189 19.1719 7.51189 18.9189H12.7462C14.9637 22.2085 17.1812 25.5443 19.3987 28.8389C21.5304 28.8389 23.6622 28.8043 25.7877 28.8043L18.3904 18.3037L20.8354 18.3744C22.6111 18.3819 24.3307 17.7181 25.6827 16.503C27.0348 15.288 27.93 13.6022 28.2062 11.7507C28.296 11.1337 28.3211 10.5082 28.281 9.88545V9.88545ZM9.45822 13.7344H8.74139L9.09201 12.7113H9.80728L9.45822 13.7344ZM10.454 13.7344H9.91168L10.2592 12.7179H10.8046L10.454 13.7344ZM13.6563 13.7344C12.9582 13.7344 12.1063 13.7344 11.1007 13.7344L11.4497 12.7228H14.0038L13.6563 13.7344ZM11.5448 12.4415L12.7525 8.94132C13.7903 8.95612 14.6505 8.9627 15.2863 8.96435L14.0973 12.4415H11.5448ZM14.8811 13.7409H14.5554H14.3014L14.6489 12.7146H15.2302L14.8811 13.7409ZM14.7424 12.4415L15.9314 8.96599H16.5189L15.3237 12.4415H14.7424ZM18.1068 13.1241C17.2217 13.5962 16.3927 13.713 15.5278 13.736L15.8769 12.7146C16.4261 12.7453 16.9764 12.7453 17.5256 12.7146C18.3437 12.6702 18.7146 12.5813 19.0839 12.3741C19.2389 12.2859 19.3847 12.1806 19.5187 12.0599C19.1042 12.4911 18.6277 12.8503 18.1068 13.1241V13.1241ZM19.916 11.1503C19.7602 11.7408 19.1914 12.0221 18.8829 12.1734C18.4684 12.3741 18.1037 12.402 17.3978 12.4448C16.9224 12.4755 16.4457 12.4755 15.9704 12.4448L17.1547 8.97915C17.3105 8.94954 18.593 8.74558 19.3987 9.65024C19.5078 9.76867 20.103 10.4282 19.916 11.147V11.1503Z" fill="#F9F9F9"></path><path d="M11.1521 9.91503L11.523 8.82944H11.1349L10.5459 10.5549L11.1521 9.91503Z" fill="#F9F9F9"></path><path d="M11.8145 7.58433C11.9611 7.72 12.0727 7.89271 12.139 8.0863C12.2052 8.27989 12.2238 8.48805 12.1931 8.69131L12.1261 8.88211L18.0586 2.63174H16.519L11.8145 7.58433Z" fill="#F9F9F9"></path><path d="M9.32526 11.8428L10.1995 9.28839L3.8104 16.0322C3.53822 16.8919 3.2785 17.7105 3.03125 18.4879L9.32526 11.8428Z" fill="#F9F9F9"></path><path d="M25.3173 4.1828L19.7214 10.0894C19.8192 10.243 19.8868 10.4157 19.9203 10.5974C19.9537 10.779 19.9524 10.9659 19.9162 11.147C19.7604 11.7375 19.1916 12.0188 18.8831 12.1701C18.4888 12.3609 18.1413 12.3954 17.4977 12.4366L17.2219 12.7293L17.5258 12.7145C18.3439 12.6701 18.7148 12.5813 19.0841 12.3741C19.2391 12.2858 19.3849 12.1805 19.5189 12.0599C19.1073 12.4903 18.634 12.8494 18.1164 13.1241C17.5573 13.4218 16.9517 13.6101 16.329 13.6801L11.3564 18.9156H12.7465C13.0664 19.3893 13.3854 19.8641 13.7033 20.34L27.1047 6.19443C26.6256 5.41816 26.0206 4.73718 25.3173 4.1828V4.1828Z" fill="#F9F9F9"></path><path d="M8.75704 21.6625L1.35352 29.4771C1.41409 29.4836 1.47494 29.4869 1.53584 29.4869H5.04048L6.83721 27.5888L8.75704 21.6625Z" fill="#F9F9F9"></path><path d="M20.8492 2.6317H19.2675L13.2773 8.94786C14.0814 8.95773 14.7609 8.96266 15.286 8.96431L14.097 12.4415H11.5445L12.4483 9.82291L11.4323 10.8953L10.8978 12.4415H10.2854L10.4662 11.9118L9.70882 12.7145H9.80699L9.45793 13.7343H8.74111L2.40814 20.4206C1.44822 23.4125 0.745423 25.5245 0.344937 26.4818C-0.278386 27.9769 0.0504168 28.7303 0.488302 29.1135L9.24288 19.8728H8.41542C8.17571 19.8728 7.94582 19.7723 7.77632 19.5934C7.60682 19.4145 7.5116 19.1718 7.5116 18.9188H10.1467L15.794 12.958L15.8766 12.7145H16.0184L16.2677 12.4497C16.1633 12.4497 16.0636 12.4497 15.9701 12.4349L17.1544 8.96924C17.2993 8.94292 18.3543 8.77515 19.1522 9.40677L24.586 3.67124C23.4482 2.98521 22.1595 2.62674 20.8492 2.6317V2.6317ZM10.4537 13.7277H9.9114L10.2589 12.7112H10.8043L10.4537 13.7277ZM13.656 13.7277C12.9579 13.7277 12.106 13.7277 11.1004 13.7277L11.4494 12.7162H14.0035L13.656 13.7277ZM14.8808 13.7376H14.5552H14.3012L14.6487 12.7145H15.2299L14.8808 13.7376ZM15.3234 12.4382H14.7422L15.9311 8.96266H16.5186L15.3234 12.4382Z" fill="white"></path><path d="M34.3877 27.1545V7.95928H39.1031C40.1694 7.93639 41.2327 8.0839 42.2572 8.3968C43.0836 8.64863 43.8003 9.198 44.283 9.94952C44.7556 10.693 44.9915 11.7199 44.9904 13.0303C44.9966 13.7364 44.9308 14.4412 44.7941 15.1324C44.6808 15.707 44.4511 16.2491 44.1209 16.7213C43.7642 17.1988 43.2959 17.5701 42.762 17.7987L45.2772 27.1594H41.4827L39.3945 18.4615H38.0918V27.1594L34.3877 27.1545ZM38.0918 16.1341H39.1701C39.7685 16.1341 40.2397 16.031 40.5835 15.8249C40.9287 15.6194 41.1892 15.2858 41.3144 14.889C41.4684 14.3879 41.5406 13.8628 41.5279 13.3362C41.5279 12.4524 41.372 11.7775 41.0604 11.3114C40.7487 10.8454 40.1773 10.6124 39.3462 10.6124H38.0887L38.0918 16.1341Z" fill="white"></path><path d="M52.0889 27.4161C50.7114 27.4161 49.6408 27.1672 48.8772 26.6693C48.1161 26.1729 47.5471 25.4068 47.2722 24.508C46.9605 23.5672 46.8047 22.4257 46.8047 21.0835V7.95938H50.4636V21.6329C50.4634 22.101 50.4973 22.5684 50.5649 23.031C50.6115 23.4396 50.7671 23.8257 51.0137 24.1445C51.2453 24.4296 51.6012 24.5722 52.0811 24.5722C52.5611 24.5722 52.9247 24.4296 53.1719 24.1445C53.4168 23.8258 53.5689 23.439 53.6098 23.031C53.6694 22.5676 53.6991 22.1005 53.6986 21.6329V7.95938H57.3591V21.0884C57.3591 22.4306 57.2033 23.5721 56.8916 24.513C56.6162 25.4102 56.0472 26.1746 55.2866 26.6693C54.5313 27.1661 53.4654 27.415 52.0889 27.4161Z" fill="white"></path><path d="M64.2638 27.4161C63.1407 27.4161 62.2057 27.1968 61.4588 26.7582C60.703 26.3154 60.107 25.6215 59.7634 24.7844C59.3821 23.9071 59.1613 22.7897 59.1011 21.4322L62.2894 20.8631C62.3046 21.5277 62.3835 22.189 62.5247 22.8369C62.6095 23.282 62.8121 23.6927 63.109 24.0212C63.2396 24.151 63.393 24.2523 63.5607 24.3195C63.7283 24.3867 63.9069 24.4183 64.0861 24.4126C64.565 24.4126 64.8902 24.2547 65.0616 23.9389C65.2384 23.6063 65.3278 23.2298 65.3203 22.8484C65.3439 22.1286 65.1514 21.4194 64.7702 20.822C64.3498 20.2162 63.864 19.6642 63.3225 19.1771L61.4354 17.4468C60.7812 16.8702 60.2238 16.1812 59.7867 15.4088C59.3598 14.65 59.1463 13.7179 59.1463 12.6126C59.1463 11.0336 59.5842 9.82134 60.4599 8.9759C61.3357 8.13045 62.5361 7.71541 64.0612 7.73076C64.9743 7.73076 65.7228 7.88866 66.3067 8.20447C66.8593 8.49076 67.3287 8.92881 67.6655 9.47263C67.9867 10.002 68.2147 10.5882 68.3387 11.203C68.4641 11.8155 68.5428 12.4376 68.574 13.0633L65.4091 13.5568C65.3851 13.038 65.3362 12.5209 65.2626 12.0073C65.2202 11.6275 65.0807 11.267 64.859 10.9645C64.7444 10.8327 64.6029 10.7301 64.4453 10.6643C64.2877 10.5985 64.118 10.5712 63.949 10.5845C63.7598 10.5718 63.5709 10.6123 63.4014 10.7019C63.2319 10.7915 63.088 10.9269 62.9844 11.0944C62.7772 11.4286 62.6688 11.8202 62.6727 12.2195C62.6486 12.8131 62.8024 13.3995 63.1122 13.8956C63.462 14.3966 63.8651 14.8536 64.3136 15.2575L66.154 16.9648C66.9135 17.6555 67.5753 18.4576 68.119 19.3466C68.6644 20.2392 68.9376 21.3412 68.9387 22.6527C68.9499 23.5063 68.7484 24.3481 68.3543 25.0936C67.9733 25.8111 67.4098 26.4019 66.7274 26.7993C65.9706 27.2266 65.1217 27.4391 64.2638 27.4161V27.4161Z" fill="white"></path><path d="M72.5789 27.1546V10.8707H69.7739V7.95938H79.0692V10.874H76.3064V27.1579L72.5789 27.1546Z" fill="white"></path><path d="M83.5662 27.1546V19.5472L80.0195 7.95938H83.4992L85.4518 14.7131L87.2657 7.95938H90.6347L87.1317 19.5472V27.1546H83.5662Z" fill="white"></path><path d="M92.0625 27.1546V7.95938H95.7666V24.508H100.033V27.1628L92.0625 27.1546Z" fill="white"></path><path d="M106.609 27.4161C105.277 27.4161 104.222 27.1633 103.443 26.6578C102.668 26.156 102.078 25.3909 101.771 24.4883C101.434 23.5496 101.266 22.424 101.266 21.1115V13.9548C101.266 12.6389 101.434 11.5171 101.771 10.5895C102.077 9.69388 102.668 8.93814 103.443 8.45118C104.222 7.97089 105.277 7.73074 106.609 7.73074C107.941 7.73074 109.007 7.97966 109.808 8.4775C110.586 8.96452 111.18 9.71978 111.491 10.6158C111.828 11.5402 111.997 12.6581 111.998 13.9696V21.1263C111.998 22.4421 111.829 23.5677 111.491 24.5031C111.182 25.4082 110.588 26.174 109.808 26.6726C109.022 27.1683 107.955 27.4161 106.609 27.4161ZM106.609 24.5952C107.087 24.5952 107.44 24.4817 107.664 24.2514C107.9 23.9994 108.057 23.6766 108.113 23.327C108.19 22.9176 108.227 22.501 108.225 22.0835V13.0074C108.228 12.5937 108.19 12.1809 108.113 11.7754C108.056 11.4275 107.9 11.1064 107.664 10.8559C107.44 10.6366 107.088 10.527 106.609 10.527C106.16 10.527 105.83 10.6421 105.598 10.8707C105.363 11.1194 105.207 11.438 105.149 11.7836C105.072 12.1891 105.034 12.602 105.037 13.0156V22.0918C105.035 22.5086 105.069 22.9248 105.138 23.3353C105.187 23.6848 105.34 24.0087 105.576 24.2597C105.8 24.4817 106.145 24.5952 106.609 24.5952Z" fill="white"></path><path d="M119.095 27.4161C117.763 27.4161 116.707 27.1633 115.928 26.6578C115.153 26.156 114.564 25.3909 114.256 24.4883C113.924 23.5496 113.757 22.424 113.757 21.1115V13.9548C113.757 12.6389 113.926 11.5171 114.262 10.5895C114.568 9.69388 115.159 8.93814 115.934 8.45118C116.708 7.97089 117.762 7.73074 119.095 7.73074C120.427 7.73074 121.494 7.97966 122.294 8.4775C123.071 8.96452 123.666 9.71978 123.977 10.6158C124.313 11.5402 124.482 12.6581 124.482 13.9696V21.1263C124.482 22.4421 124.313 23.5677 123.977 24.5031C123.667 25.4082 123.073 26.174 122.294 26.6726C121.507 27.1683 120.441 27.4161 119.095 27.4161ZM119.095 24.5952C119.573 24.5952 119.925 24.4817 120.15 24.2514C120.386 23.9994 120.542 23.6766 120.598 23.327C120.675 22.9176 120.713 22.501 120.71 22.0835V13.0074C120.713 12.5937 120.676 12.1809 120.598 11.7754C120.541 11.4271 120.383 11.1059 120.146 10.8559C119.924 10.6366 119.573 10.527 119.095 10.527C118.644 10.527 118.307 10.6415 118.083 10.8707C117.849 11.1194 117.692 11.438 117.634 11.7836C117.557 12.1891 117.519 12.602 117.522 13.0156V22.0918C117.52 22.5086 117.554 22.9248 117.623 23.3353C117.672 23.6848 117.826 24.0087 118.061 24.2597C118.286 24.4817 118.63 24.5952 119.095 24.5952Z" fill="white"></path><path d="M128.51 27.1546V10.8707H125.705V7.95938H135V10.874H132.237V27.1579L128.51 27.1546Z" fill="white"></path></svg>