<svg class="group-hover:hidden" width="22" height="22" viewBox="0 0 22 22" fill="none" xmlns="http://www.w3.org/2000/svg"><path d="M11.0001 22C13.9175 22 16.7154 20.8411 18.7783 18.7782C20.8412 16.7153 22.0002 13.9174 22.0002 11C22.0002 8.08262 20.8412 5.28473 18.7783 3.22183C16.7154 1.15893 13.9175 0 11.0001 0C8.08268 0 5.28477 1.15893 3.22185 3.22183C1.15893 5.28473 0 8.08262 0 11C0 13.9174 1.15893 16.7153 3.22185 18.7782C5.28477 20.8411 8.08268 22 11.0001 22Z" fill="#FFC701"></path><path d="M9.6121 8.5801C9.6121 9.67306 8.99079 10.5601 8.22524 10.5601C7.45969 10.5601 6.83838 9.67306 6.83838 8.5801C6.83838 7.48714 7.45969 6.6001 8.22524 6.6001C8.99079 6.6001 9.6121 7.48714 9.6121 8.5801ZM15.1595 8.5801C15.1595 9.67306 14.5382 10.5601 13.7727 10.5601C13.0071 10.5601 12.3858 9.67306 12.3858 8.5801C12.3858 7.48714 13.0071 6.6001 13.7727 6.6001C14.5382 6.6001 15.1595 7.48714 15.1595 8.5801Z" fill="#161B2A"></path><path d="M5.8467 13.3049C6.00596 13.2264 6.19523 13.2051 6.37287 13.2458C6.55051 13.2864 6.70196 13.3856 6.79392 13.5216C7.21984 14.1519 7.83275 14.6753 8.57095 15.039C9.30914 15.4028 10.1466 15.5941 10.9989 15.5937C11.8512 15.5941 12.6886 15.4028 13.4268 15.039C14.165 14.6753 14.7779 14.1519 15.2038 13.5216C15.249 13.4537 15.3095 13.3941 15.3818 13.3463C15.4541 13.2985 15.5367 13.2633 15.625 13.2428C15.7132 13.2224 15.8054 13.217 15.896 13.2271C15.9867 13.2372 16.0742 13.2624 16.1534 13.3015C16.2326 13.3405 16.3019 13.3926 16.3575 13.4546C16.413 13.5166 16.4537 13.5874 16.4771 13.6629C16.5004 13.7384 16.5061 13.817 16.4937 13.8944C16.4813 13.9718 16.4511 14.0463 16.4049 14.1136C15.8572 14.9239 15.0692 15.5968 14.1202 16.0645C13.1712 16.5321 12.0947 16.7781 10.9989 16.7777C9.90312 16.7781 8.82655 16.5321 7.87754 16.0645C6.92852 15.5968 6.14054 14.9239 5.5929 14.1136C5.50095 13.9776 5.47603 13.816 5.52363 13.6644C5.57122 13.5127 5.68743 13.3834 5.8467 13.3049Z" fill="#161B2A"></path></svg>